<svg id="Layer_1" data-name="Layer 1" xmlns="http://www.w3.org/2000/svg" viewBox="0 0 800 600"><defs><style>.cls-1{fill:none;stroke:#000;stroke-miterlimit:10;}.cls-2{fill:#282828;}</style></defs><title>Artboard 1</title><polygon class="cls-1" points="363.76 190.01 357.57 196.2 325.59 161.75 329.31 158.03 363.76 190.01"/><path class="cls-2" d="M178.59,507l98.76-284h26l40.19,141.17c.06.21.26.26.48.26s.42,0,.48-.21L384.72,223h25.68L311.64,507Z"/><path d="M409.7,223,311.29,507h-132l98.42-284H303l40.08,141.06a1,1,0,0,0,1,.75,1,1,0,0,0,1-.76L385.1,223H410m1.11-1H384.35L344.06,363.74,303.77,222H277L177.89,508H312l99.11-286Z"/></svg>